<?xml version="1.0" encoding="utf-8"?><!-- Uploaded to: SVG Repo, www.svgrepo.com, Generator: SVG Repo Mixer Tools -->
<svg width="800px" height="800px" viewBox="0 0 24 24" fill="none" xmlns="http://www.w3.org/2000/svg">
<path fill-rule="evenodd" clip-rule="evenodd" d="M7.91668 5.25L8.66668 4.5H15.3333L16.0833 5.25V7.71878L18.9273 11.3545L13.4134 19.5H21V21H11.602L5.07275 11.3545L7.91668 7.71878V5.25ZM9.03221 8.72727L6.92727 11.4182L11.25 17.8041V14.0413C10.4636 13.7338 9.91668 12.9574 9.91668 12.0682C9.91668 10.9168 10.8336 9.95455 12 9.95455C13.1664 9.95455 14.0833 10.9168 14.0833 12.0682C14.0833 12.9574 13.5364 13.7338 12.75 14.0413V17.8041L17.0728 11.4182L14.9678 8.72727H9.03221ZM14.5833 7.22727V6H9.41668V7.22727H14.5833ZM12 11.4545C11.6936 11.4545 11.4167 11.7133 11.4167 12.0682C11.4167 12.4231 11.6936 12.6818 12 12.6818C12.3064 12.6818 12.5833 12.4231 12.5833 12.0682C12.5833 11.7133 12.3064 11.4545 12 11.4545Z" fill="#080341"/>
</svg>